<?xml version="1.0" standalone="no"?>
<!DOCTYPE svg PUBLIC "-//W3C//DTD SVG 20010904//EN"
 "http://www.w3.org/TR/2001/REC-SVG-20010904/DTD/svg10.dtd">
<svg version="1.0" xmlns="http://www.w3.org/2000/svg"
 width="200.000000pt" height="200.000000pt" viewBox="0 0 200.000000 200.000000"
 preserveAspectRatio="xMidYMid meet">
<metadata>
Created by potrace 1.11, written by Peter Selinger 2001-2013
</metadata>
<g transform="translate(0.000000,200.000000) scale(0.100000,-0.100000)"
fill="#000000" stroke="none">
<path d="M303 1845 c-84 -42 -135 -126 -135 -225 -1 -145 105 -250 251 -250
84 1 134 23 189 85 45 52 62 95 62 165 0 70 -17 113 -62 165 -55 62 -105 84
-189 85 -50 0 -77 -6 -116 -25z"/>
<path d="M1421 1178 c-1 -34 -46 -88 -73 -88 -20 0 -20 -1 -5 -18 21 -24 22
-48 1 -60 -11 -6 -13 -11 -5 -16 18 -11 14 -56 -6 -56 -15 0 -15 -1 0 -18 21
-23 22 -52 2 -52 -8 0 -15 -5 -15 -10 0 -6 7 -13 15 -16 24 -10 19 -53 -7 -63
-20 -8 -21 -10 -5 -16 22 -9 24 -75 2 -75 -8 0 -15 -4 -15 -9 0 -5 7 -11 15
-15 9 -3 15 -18 15 -40 0 -29 -5 -38 -30 -51 -43 -22 -51 -20 -112 38 -16 16
-22 14 -19 -5 0 -5 -4 -8 -10 -8 -6 0 -9 6 -6 13 7 19 -3 31 -43 49 -53 25
-76 26 -72 6 2 -10 -2 -18 -8 -18 -5 0 -10 12 -10 28 0 15 -4 22 -8 17 -4 -6
-18 -12 -31 -12 -13 -1 -29 -7 -35 -14 -8 -8 -5 -10 12 -4 38 11 23 -9 -23
-31 -44 -21 -65 -15 -24 6 11 7 18 14 15 17 -5 6 -69 -36 -74 -49 -2 -4 -8 -8
-13 -8 -13 0 -54 -44 -51 -54 2 -5 -4 -4 -12 4 -11 8 -16 9 -16 1 0 -6 -9 -11
-20 -11 -17 0 -20 7 -20 40 0 34 4 42 29 55 29 14 61 51 61 67 0 5 -11 1 -24
-7 -34 -23 -82 -16 -78 9 3 17 2 18 -12 7 -14 -12 -16 -10 -16 15 0 22 8 33
30 46 40 22 38 35 -4 30 -25 -3 -35 0 -40 14 -4 10 -3 20 2 22 17 5 47 30 42
35 -3 3 -24 7 -48 10 -49 5 -46 3 -66 42 -14 26 -16 27 -16 8 0 -27 -40 -59
-52 -40 -6 9 -8 9 -8 0 0 -8 -13 -13 -32 -13 l-33 -1 33 -27 c30 -25 32 -29
18 -41 -10 -9 -28 -11 -49 -7 l-32 6 38 -33 c22 -19 37 -41 37 -54 0 -24 -19
-33 -21 -10 0 6 -4 2 -9 -10 -11 -28 -55 -31 -82 -6 -16 14 -18 14 -18 0 0
-14 36 -50 75 -72 9 -6 16 -19 14 -28 -3 -16 -11 -13 -53 20 -26 21 -89 58
-139 83 -50 25 -93 50 -94 55 -2 6 11 11 29 12 18 0 47 3 63 6 17 2 36 5 43 6
6 0 12 8 12 16 0 8 -6 15 -12 16 -7 0 -3 5 10 11 17 9 26 8 41 -6 22 -20 41
-14 41 13 0 43 -90 82 -172 76 -29 -2 -44 -2 -33 1 11 3 28 13 37 21 16 14 23
14 69 -2 52 -17 112 -14 124 5 4 6 -5 14 -19 20 -14 5 -26 17 -26 25 0 9 -7
27 -16 40 -9 13 -13 29 -9 35 8 13 -18 40 -39 40 -8 0 -18 5 -22 11 -17 28
-166 -22 -258 -86 -20 -15 -20 -15 -1 -15 16 0 13 -4 -11 -19 l-32 -19 -1 -97
-2 -96 41 4 c40 4 40 4 40 -30 0 -23 -5 -35 -17 -39 -10 -3 -28 -11 -40 -17
l-23 -10 0 -339 0 -338 1000 0 1000 0 0 436 0 437 -48 -7 c-27 -3 -71 -12 -99
-19 -39 -10 -54 -11 -67 -2 -20 15 -34 75 -17 75 6 0 11 13 11 30 0 26 -5 31
-39 40 -25 6 -41 17 -44 30 -5 21 1 24 27 14 9 -3 14 -10 11 -15 -8 -13 64
-23 88 -12 16 7 33 5 62 -8 51 -23 115 -16 115 12 0 10 -10 21 -22 25 -13 4
-34 18 -47 31 -17 16 -32 22 -46 19 -13 -3 -25 1 -32 13 -7 11 -27 22 -45 26
-18 4 -44 14 -57 22 -19 13 -28 13 -50 2 -14 -7 -36 -11 -48 -10 -16 2 -22 -4
-25 -21 -2 -15 -16 -29 -40 -41 -21 -10 -38 -23 -38 -28 0 -13 46 -22 78 -16
25 5 29 2 38 -26 5 -20 20 -37 37 -45 27 -13 28 -15 11 -33 -16 -18 -16 -20
-1 -37 10 -10 17 -25 17 -33 0 -8 7 -24 15 -36 15 -21 14 -24 -26 -60 -49 -45
-118 -93 -132 -93 -6 0 -24 -12 -39 -27 -26 -24 -28 -25 -28 -7 0 11 6 26 13
33 10 10 9 14 -5 22 -23 13 -23 47 -1 71 15 17 15 18 0 18 -23 0 -23 47 0 72
15 17 15 18 0 18 -11 0 -17 8 -17 25 0 14 5 25 10 25 6 0 10 5 10 10 0 6 -7
10 -15 10 -21 0 -19 40 3 56 16 13 16 13 0 14 -13 0 -18 8 -18 30 0 17 5 30
10 30 6 0 10 5 10 10 0 6 -9 10 -19 10 -21 0 -52 38 -69 85 l-10 30 -1 -27z
m-1 -138 c0 -11 -7 -20 -15 -20 -8 0 -15 9 -15 20 0 11 7 20 15 20 8 0 15 -9
15 -20z m40 0 c0 -11 -4 -20 -10 -20 -5 0 -10 9 -10 20 0 11 5 20 10 20 6 0
10 -9 10 -20z m-40 -80 c0 -11 -7 -20 -15 -20 -15 0 -21 21 -8 33 12 13 23 7
23 -13z m40 0 c0 -11 -4 -20 -10 -20 -5 0 -10 9 -10 20 0 11 5 20 10 20 6 0
10 -9 10 -20z m-1367 -47 c-7 -2 -21 -2 -30 0 -10 3 -4 5 12 5 17 0 24 -2 18
-5z m1327 -33 c0 -11 -7 -20 -15 -20 -15 0 -21 21 -8 33 12 13 23 7 23 -13z
m40 0 c0 -11 -4 -20 -10 -20 -5 0 -10 9 -10 20 0 11 5 20 10 20 6 0 10 -9 10
-20z m-1384 -17 c16 -6 16 -7 -1 -13 -10 -4 -30 -4 -44 -2 -23 5 -24 6 -6 13
26 10 30 10 51 2z m194 -30 c-18 -13 -27 -14 -42 -4 -10 6 -24 9 -30 5 -6 -4
-8 -3 -5 3 3 5 27 10 53 11 44 0 45 0 24 -15z m310 -3 c0 -11 -7 -20 -15 -20
-8 0 -15 9 -15 20 0 11 7 20 15 20 8 0 15 -9 15 -20z m30 0 c0 -11 -4 -20 -10
-20 -5 0 -10 9 -10 20 0 11 5 20 10 20 6 0 10 -9 10 -20z m30 0 c0 -11 -4 -20
-10 -20 -5 0 -10 9 -10 20 0 11 5 20 10 20 6 0 10 -9 10 -20z m780 -30 c0 -11
-7 -20 -15 -20 -15 0 -21 21 -8 33 12 13 23 7 23 -13z m40 0 c0 -11 -4 -20 -9
-20 -11 0 -22 26 -14 34 12 12 23 5 23 -14z m-910 -75 c0 -16 -6 -25 -15 -25
-9 0 -15 9 -15 25 0 16 6 25 15 25 9 0 15 -9 15 -25z m80 0 c0 -21 -5 -25 -30
-25 -25 0 -30 4 -30 25 0 21 5 25 30 25 25 0 30 -4 30 -25z m48 -3 c2 -15 -2
-22 -12 -22 -11 0 -16 9 -16 26 0 31 23 28 28 -4z m742 -2 c0 -11 -7 -20 -15
-20 -15 0 -21 21 -8 33 12 13 23 7 23 -13z m40 0 c0 -11 -4 -20 -10 -20 -5 0
-10 9 -10 20 0 11 5 20 10 20 6 0 10 -9 10 -20z m-440 -60 c0 -5 -4 -10 -10
-10 -5 0 -10 5 -10 10 0 6 5 10 10 10 6 0 10 -4 10 -10z m60 0 c0 -5 -4 -10
-10 -10 -5 0 -10 5 -10 10 0 6 5 10 10 10 6 0 10 -4 10 -10z m30 -10 c0 -5 -4
-10 -10 -10 -5 0 -10 5 -10 10 0 6 5 10 10 10 6 0 10 -4 10 -10z m310 -10 c0
-11 -7 -20 -15 -20 -15 0 -21 21 -8 33 12 13 23 7 23 -13z m40 0 c0 -11 -4
-20 -10 -20 -5 0 -10 9 -10 20 0 11 5 20 10 20 6 0 10 -9 10 -20z m-315 -10
c3 -5 2 -10 -4 -10 -5 0 -13 5 -16 10 -3 6 -2 10 4 10 5 0 13 -4 16 -10z
m-615 -51 c0 -24 -3 -30 -16 -25 -9 3 -18 6 -20 6 -2 0 -4 11 -4 25 0 18 5 25
20 25 16 0 20 -7 20 -31z m120 -9 c0 -39 -1 -40 -34 -40 -54 0 -66 8 -66 46
l0 34 50 0 50 0 0 -40z m60 5 c0 -28 -4 -35 -20 -35 -16 0 -20 7 -20 35 0 28
4 35 20 35 16 0 20 -7 20 -35z m180 31 c0 -3 -4 -8 -10 -11 -5 -3 -10 -1 -10
4 0 6 5 11 10 11 6 0 10 -2 10 -4z m210 -26 c14 -9 31 -34 39 -54 17 -44 11
-51 -53 -60 -40 -6 -152 16 -169 33 -10 10 14 61 37 80 39 32 101 33 146 1z
m110 -1 c0 -6 -4 -7 -10 -4 -5 3 -10 11 -10 16 0 6 5 7 10 4 6 -3 10 -11 10
-16z m-350 1 c0 -5 -5 -10 -11 -10 -5 0 -7 5 -4 10 3 6 8 10 11 10 2 0 4 -4 4
-10z m-38 -32 c-7 -7 -12 -8 -12 -2 0 14 12 26 19 19 2 -3 -1 -11 -7 -17z
m418 12 c0 -5 -2 -10 -4 -10 -3 0 -8 5 -11 10 -3 6 -1 10 4 10 6 0 11 -4 11
-10z m-220 -480 c0 -21 -33 -29 -45 -10 -9 15 4 30 26 30 12 0 19 -7 19 -20z
m98 5 c31 -2 59 -4 62 -4 2 -1 -1 -6 -8 -13 -8 -8 -15 -8 -27 2 -14 11 -16 11
-13 -1 2 -8 -3 -12 -12 -10 -8 2 -22 4 -30 4 -8 0 -18 5 -22 11 -5 8 -8 7 -8
-2 0 -10 -3 -10 -14 0 -15 14 -11 32 5 22 6 -3 36 -7 67 -9z m-231 -11 c0 -15
-57 -16 -57 -1 0 7 -5 4 -11 -5 -13 -23 -33 -23 -24 0 5 14 4 15 -6 5 -17 -17
-86 -17 -86 0 0 9 25 12 92 12 61 0 92 -3 92 -11z m47 10 c9 -3 16 -13 16 -21
0 -10 -6 -13 -16 -9 -9 3 -18 6 -20 6 -2 0 -4 7 -4 15 0 17 2 18 24 9z m323
-11 c3 -7 -7 -11 -26 -11 -29 1 -38 8 -26 20 10 10 48 3 52 -9z m33 2 c0 -19
-16 -19 -24 0 -3 9 0 15 9 15 8 0 15 -7 15 -15z"/>
<path d="M999 995 c0 0 -2 -12 -3 -27 -2 -30 9 -33 69 -18 24 6 26 8 8 9 -15
1 -23 7 -23 20 0 14 -7 19 -25 17 -14 0 -25 -1 -26 -1z"/>
</g>
</svg>
